<?xml version="1.0" encoding="utf-8"?>
<!-- Generator: Adobe Illustrator 26.5.0, SVG Export Plug-In . SVG Version: 6.00 Build 0)  -->
<svg version="1.1" id="OBJECTS" xmlns="http://www.w3.org/2000/svg" xmlns:xlink="http://www.w3.org/1999/xlink" x="0px" y="0px"
	 viewBox="0 0 160 160" style="enable-background:new 0 0 160 160;" xml:space="preserve">
<style type="text/css">
	.st0{fill:#11113D;}
</style>
<g>
	<path class="st0" d="M140.3,146.6H160l-80-80l-38.9,38.9V86.2H27.2v33.2L0,146.6h19.7l10.4-10.4h99.7L140.3,146.6L140.3,146.6z
		 M44.1,122.2L80,86.3l35.9,35.9H44.1L44.1,122.2z"/>
	<path class="st0" d="M73.2,108.4c0,3.7,3,6.8,6.8,6.8c3.7,0,6.8-3,6.8-6.8s-3-6.8-6.8-6.8C76.2,101.7,73.2,104.7,73.2,108.4z"/>
	<path class="st0" d="M57.3,72.3c1.2,1.1,3.1,1,4.1-0.3l8.5-10.7L68,59.6l3.4-3.5c1.4-1.5,3.7-1.5,5.2-0.1l0.9,0.9l2.6-2.7
		l79.9,79.7l-0.1-19.9l-73-66.9l2.6-2.7c0,0-12.8-14.3,10.5-30.9c-31.6-1.1-38.2,28.4-38.2,28.4l0.9,0.9c1.5,1.4,1.5,3.7,0.1,5.2
		l-3.4,3.5l-1.8-1.7l-10.3,9c-1.2,1.1-1.3,2.9-0.1,4.1L57.3,72.3L57.3,72.3z"/>
</g>
</svg>
